<mxfile host="app.diagrams.net" agent="Mozilla/5.0 (Windows NT 10.0; Win64; x64) AppleWebKit/537.36 (KHTML, like Gecko) Chrome/135.0.0.0 Safari/537.36 Edg/135.0.0.0" version="26.2.10">
  <diagram name="Page-1" id="TD-N_qFtXKF5kvIKr1H1">
    <mxGraphModel dx="1275" dy="632" grid="1" gridSize="10" guides="1" tooltips="1" connect="1" arrows="1" fold="1" page="1" pageScale="1" pageWidth="850" pageHeight="1100" math="0" shadow="0">
      <root>
        <mxCell id="0" />
        <mxCell id="1" parent="0" />
        <mxCell id="F1wIoHpYnANI5eHH0Oac-1" value="STUDENT" style="shape=table;startSize=25;container=1;collapsible=0;childLayout=tableLayout;fixedRows=1;rowLines=1;fontStyle=1;align=center;resizeLast=1;" parent="1" vertex="1">
          <mxGeometry x="20" y="465" width="123" height="179" as="geometry" />
        </mxCell>
        <mxCell id="F1wIoHpYnANI5eHH0Oac-2" style="shape=tableRow;horizontal=0;startSize=0;swimlaneHead=0;swimlaneBody=0;fillColor=none;collapsible=0;dropTarget=0;points=[[0,0.5],[1,0.5]];portConstraint=eastwest;top=0;left=0;right=0;bottom=0;" parent="F1wIoHpYnANI5eHH0Oac-1" vertex="1">
          <mxGeometry y="25" width="123" height="22" as="geometry" />
        </mxCell>
        <mxCell id="F1wIoHpYnANI5eHH0Oac-3" value="int" style="shape=partialRectangle;connectable=0;fillColor=none;top=0;left=0;bottom=0;right=0;align=left;spacingLeft=2;overflow=hidden;fontSize=11;" parent="F1wIoHpYnANI5eHH0Oac-2" vertex="1">
          <mxGeometry width="36" height="22" as="geometry">
            <mxRectangle width="36" height="22" as="alternateBounds" />
          </mxGeometry>
        </mxCell>
        <mxCell id="F1wIoHpYnANI5eHH0Oac-4" value="student_id" style="shape=partialRectangle;connectable=0;fillColor=none;top=0;left=0;bottom=0;right=0;align=left;spacingLeft=2;overflow=hidden;fontSize=11;" parent="F1wIoHpYnANI5eHH0Oac-2" vertex="1">
          <mxGeometry x="36" width="65" height="22" as="geometry">
            <mxRectangle width="65" height="22" as="alternateBounds" />
          </mxGeometry>
        </mxCell>
        <mxCell id="F1wIoHpYnANI5eHH0Oac-5" value="PK" style="shape=partialRectangle;connectable=0;fillColor=none;top=0;left=0;bottom=0;right=0;align=left;spacingLeft=2;overflow=hidden;fontSize=11;" parent="F1wIoHpYnANI5eHH0Oac-2" vertex="1">
          <mxGeometry x="101" width="22" height="22" as="geometry">
            <mxRectangle width="22" height="22" as="alternateBounds" />
          </mxGeometry>
        </mxCell>
        <mxCell id="F1wIoHpYnANI5eHH0Oac-6" style="shape=tableRow;horizontal=0;startSize=0;swimlaneHead=0;swimlaneBody=0;fillColor=none;collapsible=0;dropTarget=0;points=[[0,0.5],[1,0.5]];portConstraint=eastwest;top=0;left=0;right=0;bottom=0;" parent="F1wIoHpYnANI5eHH0Oac-1" vertex="1">
          <mxGeometry y="47" width="123" height="22" as="geometry" />
        </mxCell>
        <mxCell id="F1wIoHpYnANI5eHH0Oac-7" value="string" style="shape=partialRectangle;connectable=0;fillColor=none;top=0;left=0;bottom=0;right=0;align=left;spacingLeft=2;overflow=hidden;fontSize=11;" parent="F1wIoHpYnANI5eHH0Oac-6" vertex="1">
          <mxGeometry width="36" height="22" as="geometry">
            <mxRectangle width="36" height="22" as="alternateBounds" />
          </mxGeometry>
        </mxCell>
        <mxCell id="F1wIoHpYnANI5eHH0Oac-8" value="name" style="shape=partialRectangle;connectable=0;fillColor=none;top=0;left=0;bottom=0;right=0;align=left;spacingLeft=2;overflow=hidden;fontSize=11;" parent="F1wIoHpYnANI5eHH0Oac-6" vertex="1">
          <mxGeometry x="36" width="65" height="22" as="geometry">
            <mxRectangle width="65" height="22" as="alternateBounds" />
          </mxGeometry>
        </mxCell>
        <mxCell id="F1wIoHpYnANI5eHH0Oac-9" value="" style="shape=partialRectangle;connectable=0;fillColor=none;top=0;left=0;bottom=0;right=0;align=left;spacingLeft=2;overflow=hidden;fontSize=11;" parent="F1wIoHpYnANI5eHH0Oac-6" vertex="1">
          <mxGeometry x="101" width="22" height="22" as="geometry">
            <mxRectangle width="22" height="22" as="alternateBounds" />
          </mxGeometry>
        </mxCell>
        <mxCell id="F1wIoHpYnANI5eHH0Oac-10" style="shape=tableRow;horizontal=0;startSize=0;swimlaneHead=0;swimlaneBody=0;fillColor=none;collapsible=0;dropTarget=0;points=[[0,0.5],[1,0.5]];portConstraint=eastwest;top=0;left=0;right=0;bottom=0;" parent="F1wIoHpYnANI5eHH0Oac-1" vertex="1">
          <mxGeometry y="69" width="123" height="22" as="geometry" />
        </mxCell>
        <mxCell id="F1wIoHpYnANI5eHH0Oac-11" value="string" style="shape=partialRectangle;connectable=0;fillColor=none;top=0;left=0;bottom=0;right=0;align=left;spacingLeft=2;overflow=hidden;fontSize=11;" parent="F1wIoHpYnANI5eHH0Oac-10" vertex="1">
          <mxGeometry width="36" height="22" as="geometry">
            <mxRectangle width="36" height="22" as="alternateBounds" />
          </mxGeometry>
        </mxCell>
        <mxCell id="F1wIoHpYnANI5eHH0Oac-12" value="email" style="shape=partialRectangle;connectable=0;fillColor=none;top=0;left=0;bottom=0;right=0;align=left;spacingLeft=2;overflow=hidden;fontSize=11;" parent="F1wIoHpYnANI5eHH0Oac-10" vertex="1">
          <mxGeometry x="36" width="65" height="22" as="geometry">
            <mxRectangle width="65" height="22" as="alternateBounds" />
          </mxGeometry>
        </mxCell>
        <mxCell id="F1wIoHpYnANI5eHH0Oac-13" value="" style="shape=partialRectangle;connectable=0;fillColor=none;top=0;left=0;bottom=0;right=0;align=left;spacingLeft=2;overflow=hidden;fontSize=11;" parent="F1wIoHpYnANI5eHH0Oac-10" vertex="1">
          <mxGeometry x="101" width="22" height="22" as="geometry">
            <mxRectangle width="22" height="22" as="alternateBounds" />
          </mxGeometry>
        </mxCell>
        <mxCell id="F1wIoHpYnANI5eHH0Oac-14" style="shape=tableRow;horizontal=0;startSize=0;swimlaneHead=0;swimlaneBody=0;fillColor=none;collapsible=0;dropTarget=0;points=[[0,0.5],[1,0.5]];portConstraint=eastwest;top=0;left=0;right=0;bottom=0;" parent="F1wIoHpYnANI5eHH0Oac-1" vertex="1">
          <mxGeometry y="91" width="123" height="22" as="geometry" />
        </mxCell>
        <mxCell id="F1wIoHpYnANI5eHH0Oac-15" value="string" style="shape=partialRectangle;connectable=0;fillColor=none;top=0;left=0;bottom=0;right=0;align=left;spacingLeft=2;overflow=hidden;fontSize=11;" parent="F1wIoHpYnANI5eHH0Oac-14" vertex="1">
          <mxGeometry width="36" height="22" as="geometry">
            <mxRectangle width="36" height="22" as="alternateBounds" />
          </mxGeometry>
        </mxCell>
        <mxCell id="F1wIoHpYnANI5eHH0Oac-16" value="phone" style="shape=partialRectangle;connectable=0;fillColor=none;top=0;left=0;bottom=0;right=0;align=left;spacingLeft=2;overflow=hidden;fontSize=11;" parent="F1wIoHpYnANI5eHH0Oac-14" vertex="1">
          <mxGeometry x="36" width="65" height="22" as="geometry">
            <mxRectangle width="65" height="22" as="alternateBounds" />
          </mxGeometry>
        </mxCell>
        <mxCell id="F1wIoHpYnANI5eHH0Oac-17" value="" style="shape=partialRectangle;connectable=0;fillColor=none;top=0;left=0;bottom=0;right=0;align=left;spacingLeft=2;overflow=hidden;fontSize=11;" parent="F1wIoHpYnANI5eHH0Oac-14" vertex="1">
          <mxGeometry x="101" width="22" height="22" as="geometry">
            <mxRectangle width="22" height="22" as="alternateBounds" />
          </mxGeometry>
        </mxCell>
        <mxCell id="F1wIoHpYnANI5eHH0Oac-18" style="shape=tableRow;horizontal=0;startSize=0;swimlaneHead=0;swimlaneBody=0;fillColor=none;collapsible=0;dropTarget=0;points=[[0,0.5],[1,0.5]];portConstraint=eastwest;top=0;left=0;right=0;bottom=0;" parent="F1wIoHpYnANI5eHH0Oac-1" vertex="1">
          <mxGeometry y="113" width="123" height="22" as="geometry" />
        </mxCell>
        <mxCell id="F1wIoHpYnANI5eHH0Oac-19" value="string" style="shape=partialRectangle;connectable=0;fillColor=none;top=0;left=0;bottom=0;right=0;align=left;spacingLeft=2;overflow=hidden;fontSize=11;" parent="F1wIoHpYnANI5eHH0Oac-18" vertex="1">
          <mxGeometry width="36" height="22" as="geometry">
            <mxRectangle width="36" height="22" as="alternateBounds" />
          </mxGeometry>
        </mxCell>
        <mxCell id="F1wIoHpYnANI5eHH0Oac-20" value="gender" style="shape=partialRectangle;connectable=0;fillColor=none;top=0;left=0;bottom=0;right=0;align=left;spacingLeft=2;overflow=hidden;fontSize=11;" parent="F1wIoHpYnANI5eHH0Oac-18" vertex="1">
          <mxGeometry x="36" width="65" height="22" as="geometry">
            <mxRectangle width="65" height="22" as="alternateBounds" />
          </mxGeometry>
        </mxCell>
        <mxCell id="F1wIoHpYnANI5eHH0Oac-21" value="" style="shape=partialRectangle;connectable=0;fillColor=none;top=0;left=0;bottom=0;right=0;align=left;spacingLeft=2;overflow=hidden;fontSize=11;" parent="F1wIoHpYnANI5eHH0Oac-18" vertex="1">
          <mxGeometry x="101" width="22" height="22" as="geometry">
            <mxRectangle width="22" height="22" as="alternateBounds" />
          </mxGeometry>
        </mxCell>
        <mxCell id="F1wIoHpYnANI5eHH0Oac-22" style="shape=tableRow;horizontal=0;startSize=0;swimlaneHead=0;swimlaneBody=0;fillColor=none;collapsible=0;dropTarget=0;points=[[0,0.5],[1,0.5]];portConstraint=eastwest;top=0;left=0;right=0;bottom=0;" parent="F1wIoHpYnANI5eHH0Oac-1" vertex="1">
          <mxGeometry y="135" width="123" height="22" as="geometry" />
        </mxCell>
        <mxCell id="F1wIoHpYnANI5eHH0Oac-23" value="int" style="shape=partialRectangle;connectable=0;fillColor=none;top=0;left=0;bottom=0;right=0;align=left;spacingLeft=2;overflow=hidden;fontSize=11;" parent="F1wIoHpYnANI5eHH0Oac-22" vertex="1">
          <mxGeometry width="36" height="22" as="geometry">
            <mxRectangle width="36" height="22" as="alternateBounds" />
          </mxGeometry>
        </mxCell>
        <mxCell id="F1wIoHpYnANI5eHH0Oac-24" value="age" style="shape=partialRectangle;connectable=0;fillColor=none;top=0;left=0;bottom=0;right=0;align=left;spacingLeft=2;overflow=hidden;fontSize=11;" parent="F1wIoHpYnANI5eHH0Oac-22" vertex="1">
          <mxGeometry x="36" width="65" height="22" as="geometry">
            <mxRectangle width="65" height="22" as="alternateBounds" />
          </mxGeometry>
        </mxCell>
        <mxCell id="F1wIoHpYnANI5eHH0Oac-25" value="" style="shape=partialRectangle;connectable=0;fillColor=none;top=0;left=0;bottom=0;right=0;align=left;spacingLeft=2;overflow=hidden;fontSize=11;" parent="F1wIoHpYnANI5eHH0Oac-22" vertex="1">
          <mxGeometry x="101" width="22" height="22" as="geometry">
            <mxRectangle width="22" height="22" as="alternateBounds" />
          </mxGeometry>
        </mxCell>
        <mxCell id="F1wIoHpYnANI5eHH0Oac-26" style="shape=tableRow;horizontal=0;startSize=0;swimlaneHead=0;swimlaneBody=0;fillColor=none;collapsible=0;dropTarget=0;points=[[0,0.5],[1,0.5]];portConstraint=eastwest;top=0;left=0;right=0;bottom=0;" parent="F1wIoHpYnANI5eHH0Oac-1" vertex="1">
          <mxGeometry y="157" width="123" height="22" as="geometry" />
        </mxCell>
        <mxCell id="F1wIoHpYnANI5eHH0Oac-27" value="string" style="shape=partialRectangle;connectable=0;fillColor=none;top=0;left=0;bottom=0;right=0;align=left;spacingLeft=2;overflow=hidden;fontSize=11;" parent="F1wIoHpYnANI5eHH0Oac-26" vertex="1">
          <mxGeometry width="36" height="22" as="geometry">
            <mxRectangle width="36" height="22" as="alternateBounds" />
          </mxGeometry>
        </mxCell>
        <mxCell id="F1wIoHpYnANI5eHH0Oac-28" value="department" style="shape=partialRectangle;connectable=0;fillColor=none;top=0;left=0;bottom=0;right=0;align=left;spacingLeft=2;overflow=hidden;fontSize=11;" parent="F1wIoHpYnANI5eHH0Oac-26" vertex="1">
          <mxGeometry x="36" width="65" height="22" as="geometry">
            <mxRectangle width="65" height="22" as="alternateBounds" />
          </mxGeometry>
        </mxCell>
        <mxCell id="F1wIoHpYnANI5eHH0Oac-29" value="" style="shape=partialRectangle;connectable=0;fillColor=none;top=0;left=0;bottom=0;right=0;align=left;spacingLeft=2;overflow=hidden;fontSize=11;" parent="F1wIoHpYnANI5eHH0Oac-26" vertex="1">
          <mxGeometry x="101" width="22" height="22" as="geometry">
            <mxRectangle width="22" height="22" as="alternateBounds" />
          </mxGeometry>
        </mxCell>
        <mxCell id="F1wIoHpYnANI5eHH0Oac-30" value="BOOKING" style="shape=table;startSize=25;container=1;collapsible=0;childLayout=tableLayout;fixedRows=1;rowLines=1;fontStyle=1;align=center;resizeLast=1;" parent="1" vertex="1">
          <mxGeometry x="251" y="743" width="118" height="157" as="geometry" />
        </mxCell>
        <mxCell id="F1wIoHpYnANI5eHH0Oac-31" style="shape=tableRow;horizontal=0;startSize=0;swimlaneHead=0;swimlaneBody=0;fillColor=none;collapsible=0;dropTarget=0;points=[[0,0.5],[1,0.5]];portConstraint=eastwest;top=0;left=0;right=0;bottom=0;" parent="F1wIoHpYnANI5eHH0Oac-30" vertex="1">
          <mxGeometry y="25" width="118" height="22" as="geometry" />
        </mxCell>
        <mxCell id="F1wIoHpYnANI5eHH0Oac-32" value="int" style="shape=partialRectangle;connectable=0;fillColor=none;top=0;left=0;bottom=0;right=0;align=left;spacingLeft=2;overflow=hidden;fontSize=11;" parent="F1wIoHpYnANI5eHH0Oac-31" vertex="1">
          <mxGeometry width="36" height="22" as="geometry">
            <mxRectangle width="36" height="22" as="alternateBounds" />
          </mxGeometry>
        </mxCell>
        <mxCell id="F1wIoHpYnANI5eHH0Oac-33" value="booking_id" style="shape=partialRectangle;connectable=0;fillColor=none;top=0;left=0;bottom=0;right=0;align=left;spacingLeft=2;overflow=hidden;fontSize=11;" parent="F1wIoHpYnANI5eHH0Oac-31" vertex="1">
          <mxGeometry x="36" width="60" height="22" as="geometry">
            <mxRectangle width="60" height="22" as="alternateBounds" />
          </mxGeometry>
        </mxCell>
        <mxCell id="F1wIoHpYnANI5eHH0Oac-34" value="PK" style="shape=partialRectangle;connectable=0;fillColor=none;top=0;left=0;bottom=0;right=0;align=left;spacingLeft=2;overflow=hidden;fontSize=11;" parent="F1wIoHpYnANI5eHH0Oac-31" vertex="1">
          <mxGeometry x="96" width="22" height="22" as="geometry">
            <mxRectangle width="22" height="22" as="alternateBounds" />
          </mxGeometry>
        </mxCell>
        <mxCell id="F1wIoHpYnANI5eHH0Oac-35" style="shape=tableRow;horizontal=0;startSize=0;swimlaneHead=0;swimlaneBody=0;fillColor=none;collapsible=0;dropTarget=0;points=[[0,0.5],[1,0.5]];portConstraint=eastwest;top=0;left=0;right=0;bottom=0;" parent="F1wIoHpYnANI5eHH0Oac-30" vertex="1">
          <mxGeometry y="47" width="118" height="22" as="geometry" />
        </mxCell>
        <mxCell id="F1wIoHpYnANI5eHH0Oac-36" value="date" style="shape=partialRectangle;connectable=0;fillColor=none;top=0;left=0;bottom=0;right=0;align=left;spacingLeft=2;overflow=hidden;fontSize=11;" parent="F1wIoHpYnANI5eHH0Oac-35" vertex="1">
          <mxGeometry width="36" height="22" as="geometry">
            <mxRectangle width="36" height="22" as="alternateBounds" />
          </mxGeometry>
        </mxCell>
        <mxCell id="F1wIoHpYnANI5eHH0Oac-37" value="check_in" style="shape=partialRectangle;connectable=0;fillColor=none;top=0;left=0;bottom=0;right=0;align=left;spacingLeft=2;overflow=hidden;fontSize=11;" parent="F1wIoHpYnANI5eHH0Oac-35" vertex="1">
          <mxGeometry x="36" width="60" height="22" as="geometry">
            <mxRectangle width="60" height="22" as="alternateBounds" />
          </mxGeometry>
        </mxCell>
        <mxCell id="F1wIoHpYnANI5eHH0Oac-38" value="" style="shape=partialRectangle;connectable=0;fillColor=none;top=0;left=0;bottom=0;right=0;align=left;spacingLeft=2;overflow=hidden;fontSize=11;" parent="F1wIoHpYnANI5eHH0Oac-35" vertex="1">
          <mxGeometry x="96" width="22" height="22" as="geometry">
            <mxRectangle width="22" height="22" as="alternateBounds" />
          </mxGeometry>
        </mxCell>
        <mxCell id="F1wIoHpYnANI5eHH0Oac-39" style="shape=tableRow;horizontal=0;startSize=0;swimlaneHead=0;swimlaneBody=0;fillColor=none;collapsible=0;dropTarget=0;points=[[0,0.5],[1,0.5]];portConstraint=eastwest;top=0;left=0;right=0;bottom=0;" parent="F1wIoHpYnANI5eHH0Oac-30" vertex="1">
          <mxGeometry y="69" width="118" height="22" as="geometry" />
        </mxCell>
        <mxCell id="F1wIoHpYnANI5eHH0Oac-40" value="date" style="shape=partialRectangle;connectable=0;fillColor=none;top=0;left=0;bottom=0;right=0;align=left;spacingLeft=2;overflow=hidden;fontSize=11;" parent="F1wIoHpYnANI5eHH0Oac-39" vertex="1">
          <mxGeometry width="36" height="22" as="geometry">
            <mxRectangle width="36" height="22" as="alternateBounds" />
          </mxGeometry>
        </mxCell>
        <mxCell id="F1wIoHpYnANI5eHH0Oac-41" value="check_out" style="shape=partialRectangle;connectable=0;fillColor=none;top=0;left=0;bottom=0;right=0;align=left;spacingLeft=2;overflow=hidden;fontSize=11;" parent="F1wIoHpYnANI5eHH0Oac-39" vertex="1">
          <mxGeometry x="36" width="60" height="22" as="geometry">
            <mxRectangle width="60" height="22" as="alternateBounds" />
          </mxGeometry>
        </mxCell>
        <mxCell id="F1wIoHpYnANI5eHH0Oac-42" value="" style="shape=partialRectangle;connectable=0;fillColor=none;top=0;left=0;bottom=0;right=0;align=left;spacingLeft=2;overflow=hidden;fontSize=11;" parent="F1wIoHpYnANI5eHH0Oac-39" vertex="1">
          <mxGeometry x="96" width="22" height="22" as="geometry">
            <mxRectangle width="22" height="22" as="alternateBounds" />
          </mxGeometry>
        </mxCell>
        <mxCell id="F1wIoHpYnANI5eHH0Oac-43" style="shape=tableRow;horizontal=0;startSize=0;swimlaneHead=0;swimlaneBody=0;fillColor=none;collapsible=0;dropTarget=0;points=[[0,0.5],[1,0.5]];portConstraint=eastwest;top=0;left=0;right=0;bottom=0;" parent="F1wIoHpYnANI5eHH0Oac-30" vertex="1">
          <mxGeometry y="91" width="118" height="22" as="geometry" />
        </mxCell>
        <mxCell id="F1wIoHpYnANI5eHH0Oac-44" value="string" style="shape=partialRectangle;connectable=0;fillColor=none;top=0;left=0;bottom=0;right=0;align=left;spacingLeft=2;overflow=hidden;fontSize=11;" parent="F1wIoHpYnANI5eHH0Oac-43" vertex="1">
          <mxGeometry width="36" height="22" as="geometry">
            <mxRectangle width="36" height="22" as="alternateBounds" />
          </mxGeometry>
        </mxCell>
        <mxCell id="F1wIoHpYnANI5eHH0Oac-45" value="status" style="shape=partialRectangle;connectable=0;fillColor=none;top=0;left=0;bottom=0;right=0;align=left;spacingLeft=2;overflow=hidden;fontSize=11;" parent="F1wIoHpYnANI5eHH0Oac-43" vertex="1">
          <mxGeometry x="36" width="60" height="22" as="geometry">
            <mxRectangle width="60" height="22" as="alternateBounds" />
          </mxGeometry>
        </mxCell>
        <mxCell id="F1wIoHpYnANI5eHH0Oac-46" value="" style="shape=partialRectangle;connectable=0;fillColor=none;top=0;left=0;bottom=0;right=0;align=left;spacingLeft=2;overflow=hidden;fontSize=11;" parent="F1wIoHpYnANI5eHH0Oac-43" vertex="1">
          <mxGeometry x="96" width="22" height="22" as="geometry">
            <mxRectangle width="22" height="22" as="alternateBounds" />
          </mxGeometry>
        </mxCell>
        <mxCell id="F1wIoHpYnANI5eHH0Oac-47" style="shape=tableRow;horizontal=0;startSize=0;swimlaneHead=0;swimlaneBody=0;fillColor=none;collapsible=0;dropTarget=0;points=[[0,0.5],[1,0.5]];portConstraint=eastwest;top=0;left=0;right=0;bottom=0;" parent="F1wIoHpYnANI5eHH0Oac-30" vertex="1">
          <mxGeometry y="113" width="118" height="22" as="geometry" />
        </mxCell>
        <mxCell id="F1wIoHpYnANI5eHH0Oac-48" value="int" style="shape=partialRectangle;connectable=0;fillColor=none;top=0;left=0;bottom=0;right=0;align=left;spacingLeft=2;overflow=hidden;fontSize=11;" parent="F1wIoHpYnANI5eHH0Oac-47" vertex="1">
          <mxGeometry width="36" height="22" as="geometry">
            <mxRectangle width="36" height="22" as="alternateBounds" />
          </mxGeometry>
        </mxCell>
        <mxCell id="F1wIoHpYnANI5eHH0Oac-49" value="student_id" style="shape=partialRectangle;connectable=0;fillColor=none;top=0;left=0;bottom=0;right=0;align=left;spacingLeft=2;overflow=hidden;fontSize=11;" parent="F1wIoHpYnANI5eHH0Oac-47" vertex="1">
          <mxGeometry x="36" width="60" height="22" as="geometry">
            <mxRectangle width="60" height="22" as="alternateBounds" />
          </mxGeometry>
        </mxCell>
        <mxCell id="F1wIoHpYnANI5eHH0Oac-50" value="FK" style="shape=partialRectangle;connectable=0;fillColor=none;top=0;left=0;bottom=0;right=0;align=left;spacingLeft=2;overflow=hidden;fontSize=11;" parent="F1wIoHpYnANI5eHH0Oac-47" vertex="1">
          <mxGeometry x="96" width="22" height="22" as="geometry">
            <mxRectangle width="22" height="22" as="alternateBounds" />
          </mxGeometry>
        </mxCell>
        <mxCell id="F1wIoHpYnANI5eHH0Oac-51" style="shape=tableRow;horizontal=0;startSize=0;swimlaneHead=0;swimlaneBody=0;fillColor=none;collapsible=0;dropTarget=0;points=[[0,0.5],[1,0.5]];portConstraint=eastwest;top=0;left=0;right=0;bottom=0;" parent="F1wIoHpYnANI5eHH0Oac-30" vertex="1">
          <mxGeometry y="135" width="118" height="22" as="geometry" />
        </mxCell>
        <mxCell id="F1wIoHpYnANI5eHH0Oac-52" value="int" style="shape=partialRectangle;connectable=0;fillColor=none;top=0;left=0;bottom=0;right=0;align=left;spacingLeft=2;overflow=hidden;fontSize=11;" parent="F1wIoHpYnANI5eHH0Oac-51" vertex="1">
          <mxGeometry width="36" height="22" as="geometry">
            <mxRectangle width="36" height="22" as="alternateBounds" />
          </mxGeometry>
        </mxCell>
        <mxCell id="F1wIoHpYnANI5eHH0Oac-53" value="room_id" style="shape=partialRectangle;connectable=0;fillColor=none;top=0;left=0;bottom=0;right=0;align=left;spacingLeft=2;overflow=hidden;fontSize=11;" parent="F1wIoHpYnANI5eHH0Oac-51" vertex="1">
          <mxGeometry x="36" width="60" height="22" as="geometry">
            <mxRectangle width="60" height="22" as="alternateBounds" />
          </mxGeometry>
        </mxCell>
        <mxCell id="F1wIoHpYnANI5eHH0Oac-54" value="FK" style="shape=partialRectangle;connectable=0;fillColor=none;top=0;left=0;bottom=0;right=0;align=left;spacingLeft=2;overflow=hidden;fontSize=11;" parent="F1wIoHpYnANI5eHH0Oac-51" vertex="1">
          <mxGeometry x="96" width="22" height="22" as="geometry">
            <mxRectangle width="22" height="22" as="alternateBounds" />
          </mxGeometry>
        </mxCell>
        <mxCell id="F1wIoHpYnANI5eHH0Oac-55" value="ROOM" style="shape=table;startSize=25;container=1;collapsible=0;childLayout=tableLayout;fixedRows=1;rowLines=1;fontStyle=1;align=center;resizeLast=1;" parent="1" vertex="1">
          <mxGeometry x="243" y="487" width="133" height="135" as="geometry" />
        </mxCell>
        <mxCell id="F1wIoHpYnANI5eHH0Oac-56" style="shape=tableRow;horizontal=0;startSize=0;swimlaneHead=0;swimlaneBody=0;fillColor=none;collapsible=0;dropTarget=0;points=[[0,0.5],[1,0.5]];portConstraint=eastwest;top=0;left=0;right=0;bottom=0;" parent="F1wIoHpYnANI5eHH0Oac-55" vertex="1">
          <mxGeometry y="25" width="133" height="22" as="geometry" />
        </mxCell>
        <mxCell id="F1wIoHpYnANI5eHH0Oac-57" value="int" style="shape=partialRectangle;connectable=0;fillColor=none;top=0;left=0;bottom=0;right=0;align=left;spacingLeft=2;overflow=hidden;fontSize=11;" parent="F1wIoHpYnANI5eHH0Oac-56" vertex="1">
          <mxGeometry width="36" height="22" as="geometry">
            <mxRectangle width="36" height="22" as="alternateBounds" />
          </mxGeometry>
        </mxCell>
        <mxCell id="F1wIoHpYnANI5eHH0Oac-58" value="room_id" style="shape=partialRectangle;connectable=0;fillColor=none;top=0;left=0;bottom=0;right=0;align=left;spacingLeft=2;overflow=hidden;fontSize=11;" parent="F1wIoHpYnANI5eHH0Oac-56" vertex="1">
          <mxGeometry x="36" width="75" height="22" as="geometry">
            <mxRectangle width="75" height="22" as="alternateBounds" />
          </mxGeometry>
        </mxCell>
        <mxCell id="F1wIoHpYnANI5eHH0Oac-59" value="PK" style="shape=partialRectangle;connectable=0;fillColor=none;top=0;left=0;bottom=0;right=0;align=left;spacingLeft=2;overflow=hidden;fontSize=11;" parent="F1wIoHpYnANI5eHH0Oac-56" vertex="1">
          <mxGeometry x="111" width="22" height="22" as="geometry">
            <mxRectangle width="22" height="22" as="alternateBounds" />
          </mxGeometry>
        </mxCell>
        <mxCell id="F1wIoHpYnANI5eHH0Oac-60" style="shape=tableRow;horizontal=0;startSize=0;swimlaneHead=0;swimlaneBody=0;fillColor=none;collapsible=0;dropTarget=0;points=[[0,0.5],[1,0.5]];portConstraint=eastwest;top=0;left=0;right=0;bottom=0;" parent="F1wIoHpYnANI5eHH0Oac-55" vertex="1">
          <mxGeometry y="47" width="133" height="22" as="geometry" />
        </mxCell>
        <mxCell id="F1wIoHpYnANI5eHH0Oac-61" value="int" style="shape=partialRectangle;connectable=0;fillColor=none;top=0;left=0;bottom=0;right=0;align=left;spacingLeft=2;overflow=hidden;fontSize=11;" parent="F1wIoHpYnANI5eHH0Oac-60" vertex="1">
          <mxGeometry width="36" height="22" as="geometry">
            <mxRectangle width="36" height="22" as="alternateBounds" />
          </mxGeometry>
        </mxCell>
        <mxCell id="F1wIoHpYnANI5eHH0Oac-62" value="room_number" style="shape=partialRectangle;connectable=0;fillColor=none;top=0;left=0;bottom=0;right=0;align=left;spacingLeft=2;overflow=hidden;fontSize=11;" parent="F1wIoHpYnANI5eHH0Oac-60" vertex="1">
          <mxGeometry x="36" width="75" height="22" as="geometry">
            <mxRectangle width="75" height="22" as="alternateBounds" />
          </mxGeometry>
        </mxCell>
        <mxCell id="F1wIoHpYnANI5eHH0Oac-63" value="" style="shape=partialRectangle;connectable=0;fillColor=none;top=0;left=0;bottom=0;right=0;align=left;spacingLeft=2;overflow=hidden;fontSize=11;" parent="F1wIoHpYnANI5eHH0Oac-60" vertex="1">
          <mxGeometry x="111" width="22" height="22" as="geometry">
            <mxRectangle width="22" height="22" as="alternateBounds" />
          </mxGeometry>
        </mxCell>
        <mxCell id="F1wIoHpYnANI5eHH0Oac-64" style="shape=tableRow;horizontal=0;startSize=0;swimlaneHead=0;swimlaneBody=0;fillColor=none;collapsible=0;dropTarget=0;points=[[0,0.5],[1,0.5]];portConstraint=eastwest;top=0;left=0;right=0;bottom=0;" parent="F1wIoHpYnANI5eHH0Oac-55" vertex="1">
          <mxGeometry y="69" width="133" height="22" as="geometry" />
        </mxCell>
        <mxCell id="F1wIoHpYnANI5eHH0Oac-65" value="string" style="shape=partialRectangle;connectable=0;fillColor=none;top=0;left=0;bottom=0;right=0;align=left;spacingLeft=2;overflow=hidden;fontSize=11;" parent="F1wIoHpYnANI5eHH0Oac-64" vertex="1">
          <mxGeometry width="36" height="22" as="geometry">
            <mxRectangle width="36" height="22" as="alternateBounds" />
          </mxGeometry>
        </mxCell>
        <mxCell id="F1wIoHpYnANI5eHH0Oac-66" value="type" style="shape=partialRectangle;connectable=0;fillColor=none;top=0;left=0;bottom=0;right=0;align=left;spacingLeft=2;overflow=hidden;fontSize=11;" parent="F1wIoHpYnANI5eHH0Oac-64" vertex="1">
          <mxGeometry x="36" width="75" height="22" as="geometry">
            <mxRectangle width="75" height="22" as="alternateBounds" />
          </mxGeometry>
        </mxCell>
        <mxCell id="F1wIoHpYnANI5eHH0Oac-67" value="" style="shape=partialRectangle;connectable=0;fillColor=none;top=0;left=0;bottom=0;right=0;align=left;spacingLeft=2;overflow=hidden;fontSize=11;" parent="F1wIoHpYnANI5eHH0Oac-64" vertex="1">
          <mxGeometry x="111" width="22" height="22" as="geometry">
            <mxRectangle width="22" height="22" as="alternateBounds" />
          </mxGeometry>
        </mxCell>
        <mxCell id="F1wIoHpYnANI5eHH0Oac-68" style="shape=tableRow;horizontal=0;startSize=0;swimlaneHead=0;swimlaneBody=0;fillColor=none;collapsible=0;dropTarget=0;points=[[0,0.5],[1,0.5]];portConstraint=eastwest;top=0;left=0;right=0;bottom=0;" parent="F1wIoHpYnANI5eHH0Oac-55" vertex="1">
          <mxGeometry y="91" width="133" height="22" as="geometry" />
        </mxCell>
        <mxCell id="F1wIoHpYnANI5eHH0Oac-69" value="float" style="shape=partialRectangle;connectable=0;fillColor=none;top=0;left=0;bottom=0;right=0;align=left;spacingLeft=2;overflow=hidden;fontSize=11;" parent="F1wIoHpYnANI5eHH0Oac-68" vertex="1">
          <mxGeometry width="36" height="22" as="geometry">
            <mxRectangle width="36" height="22" as="alternateBounds" />
          </mxGeometry>
        </mxCell>
        <mxCell id="F1wIoHpYnANI5eHH0Oac-70" value="fees" style="shape=partialRectangle;connectable=0;fillColor=none;top=0;left=0;bottom=0;right=0;align=left;spacingLeft=2;overflow=hidden;fontSize=11;" parent="F1wIoHpYnANI5eHH0Oac-68" vertex="1">
          <mxGeometry x="36" width="75" height="22" as="geometry">
            <mxRectangle width="75" height="22" as="alternateBounds" />
          </mxGeometry>
        </mxCell>
        <mxCell id="F1wIoHpYnANI5eHH0Oac-71" value="" style="shape=partialRectangle;connectable=0;fillColor=none;top=0;left=0;bottom=0;right=0;align=left;spacingLeft=2;overflow=hidden;fontSize=11;" parent="F1wIoHpYnANI5eHH0Oac-68" vertex="1">
          <mxGeometry x="111" width="22" height="22" as="geometry">
            <mxRectangle width="22" height="22" as="alternateBounds" />
          </mxGeometry>
        </mxCell>
        <mxCell id="F1wIoHpYnANI5eHH0Oac-72" style="shape=tableRow;horizontal=0;startSize=0;swimlaneHead=0;swimlaneBody=0;fillColor=none;collapsible=0;dropTarget=0;points=[[0,0.5],[1,0.5]];portConstraint=eastwest;top=0;left=0;right=0;bottom=0;" parent="F1wIoHpYnANI5eHH0Oac-55" vertex="1">
          <mxGeometry y="113" width="133" height="22" as="geometry" />
        </mxCell>
        <mxCell id="F1wIoHpYnANI5eHH0Oac-73" value="string" style="shape=partialRectangle;connectable=0;fillColor=none;top=0;left=0;bottom=0;right=0;align=left;spacingLeft=2;overflow=hidden;fontSize=11;" parent="F1wIoHpYnANI5eHH0Oac-72" vertex="1">
          <mxGeometry width="36" height="22" as="geometry">
            <mxRectangle width="36" height="22" as="alternateBounds" />
          </mxGeometry>
        </mxCell>
        <mxCell id="F1wIoHpYnANI5eHH0Oac-74" value="status" style="shape=partialRectangle;connectable=0;fillColor=none;top=0;left=0;bottom=0;right=0;align=left;spacingLeft=2;overflow=hidden;fontSize=11;" parent="F1wIoHpYnANI5eHH0Oac-72" vertex="1">
          <mxGeometry x="36" width="75" height="22" as="geometry">
            <mxRectangle width="75" height="22" as="alternateBounds" />
          </mxGeometry>
        </mxCell>
        <mxCell id="F1wIoHpYnANI5eHH0Oac-75" value="" style="shape=partialRectangle;connectable=0;fillColor=none;top=0;left=0;bottom=0;right=0;align=left;spacingLeft=2;overflow=hidden;fontSize=11;" parent="F1wIoHpYnANI5eHH0Oac-72" vertex="1">
          <mxGeometry x="111" width="22" height="22" as="geometry">
            <mxRectangle width="22" height="22" as="alternateBounds" />
          </mxGeometry>
        </mxCell>
        <mxCell id="F1wIoHpYnANI5eHH0Oac-76" value="ADMIN" style="shape=table;startSize=25;container=1;collapsible=0;childLayout=tableLayout;fixedRows=1;rowLines=1;fontStyle=1;align=center;resizeLast=1;" parent="1" vertex="1">
          <mxGeometry x="141" y="20" width="110" height="113" as="geometry" />
        </mxCell>
        <mxCell id="F1wIoHpYnANI5eHH0Oac-77" style="shape=tableRow;horizontal=0;startSize=0;swimlaneHead=0;swimlaneBody=0;fillColor=none;collapsible=0;dropTarget=0;points=[[0,0.5],[1,0.5]];portConstraint=eastwest;top=0;left=0;right=0;bottom=0;" parent="F1wIoHpYnANI5eHH0Oac-76" vertex="1">
          <mxGeometry y="25" width="110" height="22" as="geometry" />
        </mxCell>
        <mxCell id="F1wIoHpYnANI5eHH0Oac-78" value="int" style="shape=partialRectangle;connectable=0;fillColor=none;top=0;left=0;bottom=0;right=0;align=left;spacingLeft=2;overflow=hidden;fontSize=11;" parent="F1wIoHpYnANI5eHH0Oac-77" vertex="1">
          <mxGeometry width="36" height="22" as="geometry">
            <mxRectangle width="36" height="22" as="alternateBounds" />
          </mxGeometry>
        </mxCell>
        <mxCell id="F1wIoHpYnANI5eHH0Oac-79" value="admin_id" style="shape=partialRectangle;connectable=0;fillColor=none;top=0;left=0;bottom=0;right=0;align=left;spacingLeft=2;overflow=hidden;fontSize=11;" parent="F1wIoHpYnANI5eHH0Oac-77" vertex="1">
          <mxGeometry x="36" width="52" height="22" as="geometry">
            <mxRectangle width="52" height="22" as="alternateBounds" />
          </mxGeometry>
        </mxCell>
        <mxCell id="F1wIoHpYnANI5eHH0Oac-80" value="PK" style="shape=partialRectangle;connectable=0;fillColor=none;top=0;left=0;bottom=0;right=0;align=left;spacingLeft=2;overflow=hidden;fontSize=11;" parent="F1wIoHpYnANI5eHH0Oac-77" vertex="1">
          <mxGeometry x="88" width="22" height="22" as="geometry">
            <mxRectangle width="22" height="22" as="alternateBounds" />
          </mxGeometry>
        </mxCell>
        <mxCell id="F1wIoHpYnANI5eHH0Oac-81" style="shape=tableRow;horizontal=0;startSize=0;swimlaneHead=0;swimlaneBody=0;fillColor=none;collapsible=0;dropTarget=0;points=[[0,0.5],[1,0.5]];portConstraint=eastwest;top=0;left=0;right=0;bottom=0;" parent="F1wIoHpYnANI5eHH0Oac-76" vertex="1">
          <mxGeometry y="47" width="110" height="22" as="geometry" />
        </mxCell>
        <mxCell id="F1wIoHpYnANI5eHH0Oac-82" value="string" style="shape=partialRectangle;connectable=0;fillColor=none;top=0;left=0;bottom=0;right=0;align=left;spacingLeft=2;overflow=hidden;fontSize=11;" parent="F1wIoHpYnANI5eHH0Oac-81" vertex="1">
          <mxGeometry width="36" height="22" as="geometry">
            <mxRectangle width="36" height="22" as="alternateBounds" />
          </mxGeometry>
        </mxCell>
        <mxCell id="F1wIoHpYnANI5eHH0Oac-83" value="name" style="shape=partialRectangle;connectable=0;fillColor=none;top=0;left=0;bottom=0;right=0;align=left;spacingLeft=2;overflow=hidden;fontSize=11;" parent="F1wIoHpYnANI5eHH0Oac-81" vertex="1">
          <mxGeometry x="36" width="52" height="22" as="geometry">
            <mxRectangle width="52" height="22" as="alternateBounds" />
          </mxGeometry>
        </mxCell>
        <mxCell id="F1wIoHpYnANI5eHH0Oac-84" value="" style="shape=partialRectangle;connectable=0;fillColor=none;top=0;left=0;bottom=0;right=0;align=left;spacingLeft=2;overflow=hidden;fontSize=11;" parent="F1wIoHpYnANI5eHH0Oac-81" vertex="1">
          <mxGeometry x="88" width="22" height="22" as="geometry">
            <mxRectangle width="22" height="22" as="alternateBounds" />
          </mxGeometry>
        </mxCell>
        <mxCell id="F1wIoHpYnANI5eHH0Oac-85" style="shape=tableRow;horizontal=0;startSize=0;swimlaneHead=0;swimlaneBody=0;fillColor=none;collapsible=0;dropTarget=0;points=[[0,0.5],[1,0.5]];portConstraint=eastwest;top=0;left=0;right=0;bottom=0;" parent="F1wIoHpYnANI5eHH0Oac-76" vertex="1">
          <mxGeometry y="69" width="110" height="22" as="geometry" />
        </mxCell>
        <mxCell id="F1wIoHpYnANI5eHH0Oac-86" value="string" style="shape=partialRectangle;connectable=0;fillColor=none;top=0;left=0;bottom=0;right=0;align=left;spacingLeft=2;overflow=hidden;fontSize=11;" parent="F1wIoHpYnANI5eHH0Oac-85" vertex="1">
          <mxGeometry width="36" height="22" as="geometry">
            <mxRectangle width="36" height="22" as="alternateBounds" />
          </mxGeometry>
        </mxCell>
        <mxCell id="F1wIoHpYnANI5eHH0Oac-87" value="email" style="shape=partialRectangle;connectable=0;fillColor=none;top=0;left=0;bottom=0;right=0;align=left;spacingLeft=2;overflow=hidden;fontSize=11;" parent="F1wIoHpYnANI5eHH0Oac-85" vertex="1">
          <mxGeometry x="36" width="52" height="22" as="geometry">
            <mxRectangle width="52" height="22" as="alternateBounds" />
          </mxGeometry>
        </mxCell>
        <mxCell id="F1wIoHpYnANI5eHH0Oac-88" value="" style="shape=partialRectangle;connectable=0;fillColor=none;top=0;left=0;bottom=0;right=0;align=left;spacingLeft=2;overflow=hidden;fontSize=11;" parent="F1wIoHpYnANI5eHH0Oac-85" vertex="1">
          <mxGeometry x="88" width="22" height="22" as="geometry">
            <mxRectangle width="22" height="22" as="alternateBounds" />
          </mxGeometry>
        </mxCell>
        <mxCell id="F1wIoHpYnANI5eHH0Oac-89" style="shape=tableRow;horizontal=0;startSize=0;swimlaneHead=0;swimlaneBody=0;fillColor=none;collapsible=0;dropTarget=0;points=[[0,0.5],[1,0.5]];portConstraint=eastwest;top=0;left=0;right=0;bottom=0;" parent="F1wIoHpYnANI5eHH0Oac-76" vertex="1">
          <mxGeometry y="91" width="110" height="22" as="geometry" />
        </mxCell>
        <mxCell id="F1wIoHpYnANI5eHH0Oac-90" value="string" style="shape=partialRectangle;connectable=0;fillColor=none;top=0;left=0;bottom=0;right=0;align=left;spacingLeft=2;overflow=hidden;fontSize=11;" parent="F1wIoHpYnANI5eHH0Oac-89" vertex="1">
          <mxGeometry width="36" height="22" as="geometry">
            <mxRectangle width="36" height="22" as="alternateBounds" />
          </mxGeometry>
        </mxCell>
        <mxCell id="F1wIoHpYnANI5eHH0Oac-91" value="password" style="shape=partialRectangle;connectable=0;fillColor=none;top=0;left=0;bottom=0;right=0;align=left;spacingLeft=2;overflow=hidden;fontSize=11;" parent="F1wIoHpYnANI5eHH0Oac-89" vertex="1">
          <mxGeometry x="36" width="52" height="22" as="geometry">
            <mxRectangle width="52" height="22" as="alternateBounds" />
          </mxGeometry>
        </mxCell>
        <mxCell id="F1wIoHpYnANI5eHH0Oac-92" value="" style="shape=partialRectangle;connectable=0;fillColor=none;top=0;left=0;bottom=0;right=0;align=left;spacingLeft=2;overflow=hidden;fontSize=11;" parent="F1wIoHpYnANI5eHH0Oac-89" vertex="1">
          <mxGeometry x="88" width="22" height="22" as="geometry">
            <mxRectangle width="22" height="22" as="alternateBounds" />
          </mxGeometry>
        </mxCell>
        <mxCell id="F1wIoHpYnANI5eHH0Oac-93" value="HOSTEL" style="shape=table;startSize=25;container=1;collapsible=0;childLayout=tableLayout;fixedRows=1;rowLines=1;fontStyle=1;align=center;resizeLast=1;" parent="1" vertex="1">
          <mxGeometry x="134" y="232" width="124" height="135" as="geometry" />
        </mxCell>
        <mxCell id="F1wIoHpYnANI5eHH0Oac-94" style="shape=tableRow;horizontal=0;startSize=0;swimlaneHead=0;swimlaneBody=0;fillColor=none;collapsible=0;dropTarget=0;points=[[0,0.5],[1,0.5]];portConstraint=eastwest;top=0;left=0;right=0;bottom=0;" parent="F1wIoHpYnANI5eHH0Oac-93" vertex="1">
          <mxGeometry y="25" width="124" height="22" as="geometry" />
        </mxCell>
        <mxCell id="F1wIoHpYnANI5eHH0Oac-95" value="int" style="shape=partialRectangle;connectable=0;fillColor=none;top=0;left=0;bottom=0;right=0;align=left;spacingLeft=2;overflow=hidden;fontSize=11;" parent="F1wIoHpYnANI5eHH0Oac-94" vertex="1">
          <mxGeometry width="36" height="22" as="geometry">
            <mxRectangle width="36" height="22" as="alternateBounds" />
          </mxGeometry>
        </mxCell>
        <mxCell id="F1wIoHpYnANI5eHH0Oac-96" value="hostel_id" style="shape=partialRectangle;connectable=0;fillColor=none;top=0;left=0;bottom=0;right=0;align=left;spacingLeft=2;overflow=hidden;fontSize=11;" parent="F1wIoHpYnANI5eHH0Oac-94" vertex="1">
          <mxGeometry x="36" width="66" height="22" as="geometry">
            <mxRectangle width="66" height="22" as="alternateBounds" />
          </mxGeometry>
        </mxCell>
        <mxCell id="F1wIoHpYnANI5eHH0Oac-97" value="PK" style="shape=partialRectangle;connectable=0;fillColor=none;top=0;left=0;bottom=0;right=0;align=left;spacingLeft=2;overflow=hidden;fontSize=11;" parent="F1wIoHpYnANI5eHH0Oac-94" vertex="1">
          <mxGeometry x="102" width="22" height="22" as="geometry">
            <mxRectangle width="22" height="22" as="alternateBounds" />
          </mxGeometry>
        </mxCell>
        <mxCell id="F1wIoHpYnANI5eHH0Oac-98" style="shape=tableRow;horizontal=0;startSize=0;swimlaneHead=0;swimlaneBody=0;fillColor=none;collapsible=0;dropTarget=0;points=[[0,0.5],[1,0.5]];portConstraint=eastwest;top=0;left=0;right=0;bottom=0;" parent="F1wIoHpYnANI5eHH0Oac-93" vertex="1">
          <mxGeometry y="47" width="124" height="22" as="geometry" />
        </mxCell>
        <mxCell id="F1wIoHpYnANI5eHH0Oac-99" value="string" style="shape=partialRectangle;connectable=0;fillColor=none;top=0;left=0;bottom=0;right=0;align=left;spacingLeft=2;overflow=hidden;fontSize=11;" parent="F1wIoHpYnANI5eHH0Oac-98" vertex="1">
          <mxGeometry width="36" height="22" as="geometry">
            <mxRectangle width="36" height="22" as="alternateBounds" />
          </mxGeometry>
        </mxCell>
        <mxCell id="F1wIoHpYnANI5eHH0Oac-100" value="name" style="shape=partialRectangle;connectable=0;fillColor=none;top=0;left=0;bottom=0;right=0;align=left;spacingLeft=2;overflow=hidden;fontSize=11;" parent="F1wIoHpYnANI5eHH0Oac-98" vertex="1">
          <mxGeometry x="36" width="66" height="22" as="geometry">
            <mxRectangle width="66" height="22" as="alternateBounds" />
          </mxGeometry>
        </mxCell>
        <mxCell id="F1wIoHpYnANI5eHH0Oac-101" value="" style="shape=partialRectangle;connectable=0;fillColor=none;top=0;left=0;bottom=0;right=0;align=left;spacingLeft=2;overflow=hidden;fontSize=11;" parent="F1wIoHpYnANI5eHH0Oac-98" vertex="1">
          <mxGeometry x="102" width="22" height="22" as="geometry">
            <mxRectangle width="22" height="22" as="alternateBounds" />
          </mxGeometry>
        </mxCell>
        <mxCell id="F1wIoHpYnANI5eHH0Oac-102" style="shape=tableRow;horizontal=0;startSize=0;swimlaneHead=0;swimlaneBody=0;fillColor=none;collapsible=0;dropTarget=0;points=[[0,0.5],[1,0.5]];portConstraint=eastwest;top=0;left=0;right=0;bottom=0;" parent="F1wIoHpYnANI5eHH0Oac-93" vertex="1">
          <mxGeometry y="69" width="124" height="22" as="geometry" />
        </mxCell>
        <mxCell id="F1wIoHpYnANI5eHH0Oac-103" value="string" style="shape=partialRectangle;connectable=0;fillColor=none;top=0;left=0;bottom=0;right=0;align=left;spacingLeft=2;overflow=hidden;fontSize=11;" parent="F1wIoHpYnANI5eHH0Oac-102" vertex="1">
          <mxGeometry width="36" height="22" as="geometry">
            <mxRectangle width="36" height="22" as="alternateBounds" />
          </mxGeometry>
        </mxCell>
        <mxCell id="F1wIoHpYnANI5eHH0Oac-104" value="location" style="shape=partialRectangle;connectable=0;fillColor=none;top=0;left=0;bottom=0;right=0;align=left;spacingLeft=2;overflow=hidden;fontSize=11;" parent="F1wIoHpYnANI5eHH0Oac-102" vertex="1">
          <mxGeometry x="36" width="66" height="22" as="geometry">
            <mxRectangle width="66" height="22" as="alternateBounds" />
          </mxGeometry>
        </mxCell>
        <mxCell id="F1wIoHpYnANI5eHH0Oac-105" value="" style="shape=partialRectangle;connectable=0;fillColor=none;top=0;left=0;bottom=0;right=0;align=left;spacingLeft=2;overflow=hidden;fontSize=11;" parent="F1wIoHpYnANI5eHH0Oac-102" vertex="1">
          <mxGeometry x="102" width="22" height="22" as="geometry">
            <mxRectangle width="22" height="22" as="alternateBounds" />
          </mxGeometry>
        </mxCell>
        <mxCell id="F1wIoHpYnANI5eHH0Oac-106" style="shape=tableRow;horizontal=0;startSize=0;swimlaneHead=0;swimlaneBody=0;fillColor=none;collapsible=0;dropTarget=0;points=[[0,0.5],[1,0.5]];portConstraint=eastwest;top=0;left=0;right=0;bottom=0;" parent="F1wIoHpYnANI5eHH0Oac-93" vertex="1">
          <mxGeometry y="91" width="124" height="22" as="geometry" />
        </mxCell>
        <mxCell id="F1wIoHpYnANI5eHH0Oac-107" value="string" style="shape=partialRectangle;connectable=0;fillColor=none;top=0;left=0;bottom=0;right=0;align=left;spacingLeft=2;overflow=hidden;fontSize=11;" parent="F1wIoHpYnANI5eHH0Oac-106" vertex="1">
          <mxGeometry width="36" height="22" as="geometry">
            <mxRectangle width="36" height="22" as="alternateBounds" />
          </mxGeometry>
        </mxCell>
        <mxCell id="F1wIoHpYnANI5eHH0Oac-108" value="type" style="shape=partialRectangle;connectable=0;fillColor=none;top=0;left=0;bottom=0;right=0;align=left;spacingLeft=2;overflow=hidden;fontSize=11;" parent="F1wIoHpYnANI5eHH0Oac-106" vertex="1">
          <mxGeometry x="36" width="66" height="22" as="geometry">
            <mxRectangle width="66" height="22" as="alternateBounds" />
          </mxGeometry>
        </mxCell>
        <mxCell id="F1wIoHpYnANI5eHH0Oac-109" value="" style="shape=partialRectangle;connectable=0;fillColor=none;top=0;left=0;bottom=0;right=0;align=left;spacingLeft=2;overflow=hidden;fontSize=11;" parent="F1wIoHpYnANI5eHH0Oac-106" vertex="1">
          <mxGeometry x="102" width="22" height="22" as="geometry">
            <mxRectangle width="22" height="22" as="alternateBounds" />
          </mxGeometry>
        </mxCell>
        <mxCell id="F1wIoHpYnANI5eHH0Oac-110" style="shape=tableRow;horizontal=0;startSize=0;swimlaneHead=0;swimlaneBody=0;fillColor=none;collapsible=0;dropTarget=0;points=[[0,0.5],[1,0.5]];portConstraint=eastwest;top=0;left=0;right=0;bottom=0;" parent="F1wIoHpYnANI5eHH0Oac-93" vertex="1">
          <mxGeometry y="113" width="124" height="22" as="geometry" />
        </mxCell>
        <mxCell id="F1wIoHpYnANI5eHH0Oac-111" value="int" style="shape=partialRectangle;connectable=0;fillColor=none;top=0;left=0;bottom=0;right=0;align=left;spacingLeft=2;overflow=hidden;fontSize=11;" parent="F1wIoHpYnANI5eHH0Oac-110" vertex="1">
          <mxGeometry width="36" height="22" as="geometry">
            <mxRectangle width="36" height="22" as="alternateBounds" />
          </mxGeometry>
        </mxCell>
        <mxCell id="F1wIoHpYnANI5eHH0Oac-112" value="total_rooms" style="shape=partialRectangle;connectable=0;fillColor=none;top=0;left=0;bottom=0;right=0;align=left;spacingLeft=2;overflow=hidden;fontSize=11;" parent="F1wIoHpYnANI5eHH0Oac-110" vertex="1">
          <mxGeometry x="36" width="66" height="22" as="geometry">
            <mxRectangle width="66" height="22" as="alternateBounds" />
          </mxGeometry>
        </mxCell>
        <mxCell id="F1wIoHpYnANI5eHH0Oac-113" value="" style="shape=partialRectangle;connectable=0;fillColor=none;top=0;left=0;bottom=0;right=0;align=left;spacingLeft=2;overflow=hidden;fontSize=11;" parent="F1wIoHpYnANI5eHH0Oac-110" vertex="1">
          <mxGeometry x="102" width="22" height="22" as="geometry">
            <mxRectangle width="22" height="22" as="alternateBounds" />
          </mxGeometry>
        </mxCell>
        <mxCell id="F1wIoHpYnANI5eHH0Oac-114" value="MAINTENANCE" style="shape=table;startSize=25;container=1;collapsible=0;childLayout=tableLayout;fixedRows=1;rowLines=1;fontStyle=1;align=center;resizeLast=1;" parent="1" vertex="1">
          <mxGeometry x="358" y="232" width="130" height="135" as="geometry" />
        </mxCell>
        <mxCell id="F1wIoHpYnANI5eHH0Oac-115" style="shape=tableRow;horizontal=0;startSize=0;swimlaneHead=0;swimlaneBody=0;fillColor=none;collapsible=0;dropTarget=0;points=[[0,0.5],[1,0.5]];portConstraint=eastwest;top=0;left=0;right=0;bottom=0;" parent="F1wIoHpYnANI5eHH0Oac-114" vertex="1">
          <mxGeometry y="25" width="130" height="22" as="geometry" />
        </mxCell>
        <mxCell id="F1wIoHpYnANI5eHH0Oac-116" value="int" style="shape=partialRectangle;connectable=0;fillColor=none;top=0;left=0;bottom=0;right=0;align=left;spacingLeft=2;overflow=hidden;fontSize=11;" parent="F1wIoHpYnANI5eHH0Oac-115" vertex="1">
          <mxGeometry width="36" height="22" as="geometry">
            <mxRectangle width="36" height="22" as="alternateBounds" />
          </mxGeometry>
        </mxCell>
        <mxCell id="F1wIoHpYnANI5eHH0Oac-117" value="request_id" style="shape=partialRectangle;connectable=0;fillColor=none;top=0;left=0;bottom=0;right=0;align=left;spacingLeft=2;overflow=hidden;fontSize=11;" parent="F1wIoHpYnANI5eHH0Oac-115" vertex="1">
          <mxGeometry x="36" width="72" height="22" as="geometry">
            <mxRectangle width="72" height="22" as="alternateBounds" />
          </mxGeometry>
        </mxCell>
        <mxCell id="F1wIoHpYnANI5eHH0Oac-118" value="PK" style="shape=partialRectangle;connectable=0;fillColor=none;top=0;left=0;bottom=0;right=0;align=left;spacingLeft=2;overflow=hidden;fontSize=11;" parent="F1wIoHpYnANI5eHH0Oac-115" vertex="1">
          <mxGeometry x="108" width="22" height="22" as="geometry">
            <mxRectangle width="22" height="22" as="alternateBounds" />
          </mxGeometry>
        </mxCell>
        <mxCell id="F1wIoHpYnANI5eHH0Oac-119" style="shape=tableRow;horizontal=0;startSize=0;swimlaneHead=0;swimlaneBody=0;fillColor=none;collapsible=0;dropTarget=0;points=[[0,0.5],[1,0.5]];portConstraint=eastwest;top=0;left=0;right=0;bottom=0;" parent="F1wIoHpYnANI5eHH0Oac-114" vertex="1">
          <mxGeometry y="47" width="130" height="22" as="geometry" />
        </mxCell>
        <mxCell id="F1wIoHpYnANI5eHH0Oac-120" value="date" style="shape=partialRectangle;connectable=0;fillColor=none;top=0;left=0;bottom=0;right=0;align=left;spacingLeft=2;overflow=hidden;fontSize=11;" parent="F1wIoHpYnANI5eHH0Oac-119" vertex="1">
          <mxGeometry width="36" height="22" as="geometry">
            <mxRectangle width="36" height="22" as="alternateBounds" />
          </mxGeometry>
        </mxCell>
        <mxCell id="F1wIoHpYnANI5eHH0Oac-121" value="request_date" style="shape=partialRectangle;connectable=0;fillColor=none;top=0;left=0;bottom=0;right=0;align=left;spacingLeft=2;overflow=hidden;fontSize=11;" parent="F1wIoHpYnANI5eHH0Oac-119" vertex="1">
          <mxGeometry x="36" width="72" height="22" as="geometry">
            <mxRectangle width="72" height="22" as="alternateBounds" />
          </mxGeometry>
        </mxCell>
        <mxCell id="F1wIoHpYnANI5eHH0Oac-122" value="" style="shape=partialRectangle;connectable=0;fillColor=none;top=0;left=0;bottom=0;right=0;align=left;spacingLeft=2;overflow=hidden;fontSize=11;" parent="F1wIoHpYnANI5eHH0Oac-119" vertex="1">
          <mxGeometry x="108" width="22" height="22" as="geometry">
            <mxRectangle width="22" height="22" as="alternateBounds" />
          </mxGeometry>
        </mxCell>
        <mxCell id="F1wIoHpYnANI5eHH0Oac-123" style="shape=tableRow;horizontal=0;startSize=0;swimlaneHead=0;swimlaneBody=0;fillColor=none;collapsible=0;dropTarget=0;points=[[0,0.5],[1,0.5]];portConstraint=eastwest;top=0;left=0;right=0;bottom=0;" parent="F1wIoHpYnANI5eHH0Oac-114" vertex="1">
          <mxGeometry y="69" width="130" height="22" as="geometry" />
        </mxCell>
        <mxCell id="F1wIoHpYnANI5eHH0Oac-124" value="string" style="shape=partialRectangle;connectable=0;fillColor=none;top=0;left=0;bottom=0;right=0;align=left;spacingLeft=2;overflow=hidden;fontSize=11;" parent="F1wIoHpYnANI5eHH0Oac-123" vertex="1">
          <mxGeometry width="36" height="22" as="geometry">
            <mxRectangle width="36" height="22" as="alternateBounds" />
          </mxGeometry>
        </mxCell>
        <mxCell id="F1wIoHpYnANI5eHH0Oac-125" value="issue" style="shape=partialRectangle;connectable=0;fillColor=none;top=0;left=0;bottom=0;right=0;align=left;spacingLeft=2;overflow=hidden;fontSize=11;" parent="F1wIoHpYnANI5eHH0Oac-123" vertex="1">
          <mxGeometry x="36" width="72" height="22" as="geometry">
            <mxRectangle width="72" height="22" as="alternateBounds" />
          </mxGeometry>
        </mxCell>
        <mxCell id="F1wIoHpYnANI5eHH0Oac-126" value="" style="shape=partialRectangle;connectable=0;fillColor=none;top=0;left=0;bottom=0;right=0;align=left;spacingLeft=2;overflow=hidden;fontSize=11;" parent="F1wIoHpYnANI5eHH0Oac-123" vertex="1">
          <mxGeometry x="108" width="22" height="22" as="geometry">
            <mxRectangle width="22" height="22" as="alternateBounds" />
          </mxGeometry>
        </mxCell>
        <mxCell id="F1wIoHpYnANI5eHH0Oac-127" style="shape=tableRow;horizontal=0;startSize=0;swimlaneHead=0;swimlaneBody=0;fillColor=none;collapsible=0;dropTarget=0;points=[[0,0.5],[1,0.5]];portConstraint=eastwest;top=0;left=0;right=0;bottom=0;" parent="F1wIoHpYnANI5eHH0Oac-114" vertex="1">
          <mxGeometry y="91" width="130" height="22" as="geometry" />
        </mxCell>
        <mxCell id="F1wIoHpYnANI5eHH0Oac-128" value="string" style="shape=partialRectangle;connectable=0;fillColor=none;top=0;left=0;bottom=0;right=0;align=left;spacingLeft=2;overflow=hidden;fontSize=11;" parent="F1wIoHpYnANI5eHH0Oac-127" vertex="1">
          <mxGeometry width="36" height="22" as="geometry">
            <mxRectangle width="36" height="22" as="alternateBounds" />
          </mxGeometry>
        </mxCell>
        <mxCell id="F1wIoHpYnANI5eHH0Oac-129" value="status" style="shape=partialRectangle;connectable=0;fillColor=none;top=0;left=0;bottom=0;right=0;align=left;spacingLeft=2;overflow=hidden;fontSize=11;" parent="F1wIoHpYnANI5eHH0Oac-127" vertex="1">
          <mxGeometry x="36" width="72" height="22" as="geometry">
            <mxRectangle width="72" height="22" as="alternateBounds" />
          </mxGeometry>
        </mxCell>
        <mxCell id="F1wIoHpYnANI5eHH0Oac-130" value="" style="shape=partialRectangle;connectable=0;fillColor=none;top=0;left=0;bottom=0;right=0;align=left;spacingLeft=2;overflow=hidden;fontSize=11;" parent="F1wIoHpYnANI5eHH0Oac-127" vertex="1">
          <mxGeometry x="108" width="22" height="22" as="geometry">
            <mxRectangle width="22" height="22" as="alternateBounds" />
          </mxGeometry>
        </mxCell>
        <mxCell id="F1wIoHpYnANI5eHH0Oac-131" style="shape=tableRow;horizontal=0;startSize=0;swimlaneHead=0;swimlaneBody=0;fillColor=none;collapsible=0;dropTarget=0;points=[[0,0.5],[1,0.5]];portConstraint=eastwest;top=0;left=0;right=0;bottom=0;" parent="F1wIoHpYnANI5eHH0Oac-114" vertex="1">
          <mxGeometry y="113" width="130" height="22" as="geometry" />
        </mxCell>
        <mxCell id="F1wIoHpYnANI5eHH0Oac-132" value="int" style="shape=partialRectangle;connectable=0;fillColor=none;top=0;left=0;bottom=0;right=0;align=left;spacingLeft=2;overflow=hidden;fontSize=11;" parent="F1wIoHpYnANI5eHH0Oac-131" vertex="1">
          <mxGeometry width="36" height="22" as="geometry">
            <mxRectangle width="36" height="22" as="alternateBounds" />
          </mxGeometry>
        </mxCell>
        <mxCell id="F1wIoHpYnANI5eHH0Oac-133" value="room_id" style="shape=partialRectangle;connectable=0;fillColor=none;top=0;left=0;bottom=0;right=0;align=left;spacingLeft=2;overflow=hidden;fontSize=11;" parent="F1wIoHpYnANI5eHH0Oac-131" vertex="1">
          <mxGeometry x="36" width="72" height="22" as="geometry">
            <mxRectangle width="72" height="22" as="alternateBounds" />
          </mxGeometry>
        </mxCell>
        <mxCell id="F1wIoHpYnANI5eHH0Oac-134" value="FK" style="shape=partialRectangle;connectable=0;fillColor=none;top=0;left=0;bottom=0;right=0;align=left;spacingLeft=2;overflow=hidden;fontSize=11;" parent="F1wIoHpYnANI5eHH0Oac-131" vertex="1">
          <mxGeometry x="108" width="22" height="22" as="geometry">
            <mxRectangle width="22" height="22" as="alternateBounds" />
          </mxGeometry>
        </mxCell>
        <mxCell id="F1wIoHpYnANI5eHH0Oac-135" value="PAYMENT" style="shape=table;startSize=25;container=1;collapsible=0;childLayout=tableLayout;fixedRows=1;rowLines=1;fontStyle=1;align=center;resizeLast=1;" parent="1" vertex="1">
          <mxGeometry x="476" y="487" width="134" height="135" as="geometry" />
        </mxCell>
        <mxCell id="F1wIoHpYnANI5eHH0Oac-136" style="shape=tableRow;horizontal=0;startSize=0;swimlaneHead=0;swimlaneBody=0;fillColor=none;collapsible=0;dropTarget=0;points=[[0,0.5],[1,0.5]];portConstraint=eastwest;top=0;left=0;right=0;bottom=0;" parent="F1wIoHpYnANI5eHH0Oac-135" vertex="1">
          <mxGeometry y="25" width="134" height="22" as="geometry" />
        </mxCell>
        <mxCell id="F1wIoHpYnANI5eHH0Oac-137" value="int" style="shape=partialRectangle;connectable=0;fillColor=none;top=0;left=0;bottom=0;right=0;align=left;spacingLeft=2;overflow=hidden;fontSize=11;" parent="F1wIoHpYnANI5eHH0Oac-136" vertex="1">
          <mxGeometry width="36" height="22" as="geometry">
            <mxRectangle width="36" height="22" as="alternateBounds" />
          </mxGeometry>
        </mxCell>
        <mxCell id="F1wIoHpYnANI5eHH0Oac-138" value="payment_id" style="shape=partialRectangle;connectable=0;fillColor=none;top=0;left=0;bottom=0;right=0;align=left;spacingLeft=2;overflow=hidden;fontSize=11;" parent="F1wIoHpYnANI5eHH0Oac-136" vertex="1">
          <mxGeometry x="36" width="76" height="22" as="geometry">
            <mxRectangle width="76" height="22" as="alternateBounds" />
          </mxGeometry>
        </mxCell>
        <mxCell id="F1wIoHpYnANI5eHH0Oac-139" value="PK" style="shape=partialRectangle;connectable=0;fillColor=none;top=0;left=0;bottom=0;right=0;align=left;spacingLeft=2;overflow=hidden;fontSize=11;" parent="F1wIoHpYnANI5eHH0Oac-136" vertex="1">
          <mxGeometry x="112" width="22" height="22" as="geometry">
            <mxRectangle width="22" height="22" as="alternateBounds" />
          </mxGeometry>
        </mxCell>
        <mxCell id="F1wIoHpYnANI5eHH0Oac-140" style="shape=tableRow;horizontal=0;startSize=0;swimlaneHead=0;swimlaneBody=0;fillColor=none;collapsible=0;dropTarget=0;points=[[0,0.5],[1,0.5]];portConstraint=eastwest;top=0;left=0;right=0;bottom=0;" parent="F1wIoHpYnANI5eHH0Oac-135" vertex="1">
          <mxGeometry y="47" width="134" height="22" as="geometry" />
        </mxCell>
        <mxCell id="F1wIoHpYnANI5eHH0Oac-141" value="float" style="shape=partialRectangle;connectable=0;fillColor=none;top=0;left=0;bottom=0;right=0;align=left;spacingLeft=2;overflow=hidden;fontSize=11;" parent="F1wIoHpYnANI5eHH0Oac-140" vertex="1">
          <mxGeometry width="36" height="22" as="geometry">
            <mxRectangle width="36" height="22" as="alternateBounds" />
          </mxGeometry>
        </mxCell>
        <mxCell id="F1wIoHpYnANI5eHH0Oac-142" value="amount" style="shape=partialRectangle;connectable=0;fillColor=none;top=0;left=0;bottom=0;right=0;align=left;spacingLeft=2;overflow=hidden;fontSize=11;" parent="F1wIoHpYnANI5eHH0Oac-140" vertex="1">
          <mxGeometry x="36" width="76" height="22" as="geometry">
            <mxRectangle width="76" height="22" as="alternateBounds" />
          </mxGeometry>
        </mxCell>
        <mxCell id="F1wIoHpYnANI5eHH0Oac-143" value="" style="shape=partialRectangle;connectable=0;fillColor=none;top=0;left=0;bottom=0;right=0;align=left;spacingLeft=2;overflow=hidden;fontSize=11;" parent="F1wIoHpYnANI5eHH0Oac-140" vertex="1">
          <mxGeometry x="112" width="22" height="22" as="geometry">
            <mxRectangle width="22" height="22" as="alternateBounds" />
          </mxGeometry>
        </mxCell>
        <mxCell id="F1wIoHpYnANI5eHH0Oac-144" style="shape=tableRow;horizontal=0;startSize=0;swimlaneHead=0;swimlaneBody=0;fillColor=none;collapsible=0;dropTarget=0;points=[[0,0.5],[1,0.5]];portConstraint=eastwest;top=0;left=0;right=0;bottom=0;" parent="F1wIoHpYnANI5eHH0Oac-135" vertex="1">
          <mxGeometry y="69" width="134" height="22" as="geometry" />
        </mxCell>
        <mxCell id="F1wIoHpYnANI5eHH0Oac-145" value="date" style="shape=partialRectangle;connectable=0;fillColor=none;top=0;left=0;bottom=0;right=0;align=left;spacingLeft=2;overflow=hidden;fontSize=11;" parent="F1wIoHpYnANI5eHH0Oac-144" vertex="1">
          <mxGeometry width="36" height="22" as="geometry">
            <mxRectangle width="36" height="22" as="alternateBounds" />
          </mxGeometry>
        </mxCell>
        <mxCell id="F1wIoHpYnANI5eHH0Oac-146" value="payment_date" style="shape=partialRectangle;connectable=0;fillColor=none;top=0;left=0;bottom=0;right=0;align=left;spacingLeft=2;overflow=hidden;fontSize=11;" parent="F1wIoHpYnANI5eHH0Oac-144" vertex="1">
          <mxGeometry x="36" width="76" height="22" as="geometry">
            <mxRectangle width="76" height="22" as="alternateBounds" />
          </mxGeometry>
        </mxCell>
        <mxCell id="F1wIoHpYnANI5eHH0Oac-147" value="" style="shape=partialRectangle;connectable=0;fillColor=none;top=0;left=0;bottom=0;right=0;align=left;spacingLeft=2;overflow=hidden;fontSize=11;" parent="F1wIoHpYnANI5eHH0Oac-144" vertex="1">
          <mxGeometry x="112" width="22" height="22" as="geometry">
            <mxRectangle width="22" height="22" as="alternateBounds" />
          </mxGeometry>
        </mxCell>
        <mxCell id="F1wIoHpYnANI5eHH0Oac-148" style="shape=tableRow;horizontal=0;startSize=0;swimlaneHead=0;swimlaneBody=0;fillColor=none;collapsible=0;dropTarget=0;points=[[0,0.5],[1,0.5]];portConstraint=eastwest;top=0;left=0;right=0;bottom=0;" parent="F1wIoHpYnANI5eHH0Oac-135" vertex="1">
          <mxGeometry y="91" width="134" height="22" as="geometry" />
        </mxCell>
        <mxCell id="F1wIoHpYnANI5eHH0Oac-149" value="string" style="shape=partialRectangle;connectable=0;fillColor=none;top=0;left=0;bottom=0;right=0;align=left;spacingLeft=2;overflow=hidden;fontSize=11;" parent="F1wIoHpYnANI5eHH0Oac-148" vertex="1">
          <mxGeometry width="36" height="22" as="geometry">
            <mxRectangle width="36" height="22" as="alternateBounds" />
          </mxGeometry>
        </mxCell>
        <mxCell id="F1wIoHpYnANI5eHH0Oac-150" value="method" style="shape=partialRectangle;connectable=0;fillColor=none;top=0;left=0;bottom=0;right=0;align=left;spacingLeft=2;overflow=hidden;fontSize=11;" parent="F1wIoHpYnANI5eHH0Oac-148" vertex="1">
          <mxGeometry x="36" width="76" height="22" as="geometry">
            <mxRectangle width="76" height="22" as="alternateBounds" />
          </mxGeometry>
        </mxCell>
        <mxCell id="F1wIoHpYnANI5eHH0Oac-151" value="" style="shape=partialRectangle;connectable=0;fillColor=none;top=0;left=0;bottom=0;right=0;align=left;spacingLeft=2;overflow=hidden;fontSize=11;" parent="F1wIoHpYnANI5eHH0Oac-148" vertex="1">
          <mxGeometry x="112" width="22" height="22" as="geometry">
            <mxRectangle width="22" height="22" as="alternateBounds" />
          </mxGeometry>
        </mxCell>
        <mxCell id="F1wIoHpYnANI5eHH0Oac-152" style="shape=tableRow;horizontal=0;startSize=0;swimlaneHead=0;swimlaneBody=0;fillColor=none;collapsible=0;dropTarget=0;points=[[0,0.5],[1,0.5]];portConstraint=eastwest;top=0;left=0;right=0;bottom=0;" parent="F1wIoHpYnANI5eHH0Oac-135" vertex="1">
          <mxGeometry y="113" width="134" height="22" as="geometry" />
        </mxCell>
        <mxCell id="F1wIoHpYnANI5eHH0Oac-153" value="int" style="shape=partialRectangle;connectable=0;fillColor=none;top=0;left=0;bottom=0;right=0;align=left;spacingLeft=2;overflow=hidden;fontSize=11;" parent="F1wIoHpYnANI5eHH0Oac-152" vertex="1">
          <mxGeometry width="36" height="22" as="geometry">
            <mxRectangle width="36" height="22" as="alternateBounds" />
          </mxGeometry>
        </mxCell>
        <mxCell id="F1wIoHpYnANI5eHH0Oac-154" value="booking_id" style="shape=partialRectangle;connectable=0;fillColor=none;top=0;left=0;bottom=0;right=0;align=left;spacingLeft=2;overflow=hidden;fontSize=11;" parent="F1wIoHpYnANI5eHH0Oac-152" vertex="1">
          <mxGeometry x="36" width="76" height="22" as="geometry">
            <mxRectangle width="76" height="22" as="alternateBounds" />
          </mxGeometry>
        </mxCell>
        <mxCell id="F1wIoHpYnANI5eHH0Oac-155" value="FK" style="shape=partialRectangle;connectable=0;fillColor=none;top=0;left=0;bottom=0;right=0;align=left;spacingLeft=2;overflow=hidden;fontSize=11;" parent="F1wIoHpYnANI5eHH0Oac-152" vertex="1">
          <mxGeometry x="112" width="22" height="22" as="geometry">
            <mxRectangle width="22" height="22" as="alternateBounds" />
          </mxGeometry>
        </mxCell>
        <mxCell id="F1wIoHpYnANI5eHH0Oac-156" value="makes" style="curved=1;startArrow=ERmandOne;startSize=10;;endArrow=ERzeroToMany;endSize=10;;exitX=0.5;exitY=1;entryX=0;entryY=0.29;rounded=0;" parent="1" source="F1wIoHpYnANI5eHH0Oac-1" target="F1wIoHpYnANI5eHH0Oac-30" edge="1">
          <mxGeometry relative="1" as="geometry">
            <Array as="points">
              <mxPoint x="82" y="693" />
            </Array>
          </mxGeometry>
        </mxCell>
        <mxCell id="F1wIoHpYnANI5eHH0Oac-157" value="has" style="curved=1;startArrow=ERmandOne;startSize=10;;endArrow=ERzeroToMany;endSize=10;;exitX=0.5;exitY=1;entryX=0.49;entryY=0;rounded=0;" parent="1" source="F1wIoHpYnANI5eHH0Oac-55" target="F1wIoHpYnANI5eHH0Oac-30" edge="1">
          <mxGeometry relative="1" as="geometry">
            <Array as="points" />
          </mxGeometry>
        </mxCell>
        <mxCell id="F1wIoHpYnANI5eHH0Oac-158" value="manages" style="curved=1;startArrow=ERmandOne;startSize=10;;endArrow=ERmandOne;endSize=10;;exitX=0.5;exitY=1;entryX=0.5;entryY=0;rounded=0;" parent="1" source="F1wIoHpYnANI5eHH0Oac-76" target="F1wIoHpYnANI5eHH0Oac-93" edge="1">
          <mxGeometry relative="1" as="geometry">
            <Array as="points" />
          </mxGeometry>
        </mxCell>
        <mxCell id="F1wIoHpYnANI5eHH0Oac-159" value="contains" style="curved=1;startArrow=ERmandOne;startSize=10;;endArrow=ERzeroToMany;endSize=10;;exitX=0.5;exitY=0.99;entryX=0.09;entryY=0;rounded=0;" parent="1" source="F1wIoHpYnANI5eHH0Oac-93" target="F1wIoHpYnANI5eHH0Oac-55" edge="1">
          <mxGeometry relative="1" as="geometry">
            <Array as="points">
              <mxPoint x="196" y="415" />
            </Array>
          </mxGeometry>
        </mxCell>
        <mxCell id="F1wIoHpYnANI5eHH0Oac-160" value="assigned_to" style="curved=1;startArrow=ERmandOne;startSize=10;;endArrow=ERmandOne;endSize=10;;exitX=0.5;exitY=0.99;entryX=0.91;entryY=0;rounded=0;" parent="1" source="F1wIoHpYnANI5eHH0Oac-114" target="F1wIoHpYnANI5eHH0Oac-55" edge="1">
          <mxGeometry relative="1" as="geometry">
            <Array as="points">
              <mxPoint x="423" y="415" />
            </Array>
          </mxGeometry>
        </mxCell>
        <mxCell id="F1wIoHpYnANI5eHH0Oac-161" value="related_to" style="curved=1;startArrow=ERmandOne;startSize=10;;endArrow=ERmandOne;endSize=10;;exitX=0.5;exitY=1;entryX=0.99;entryY=0.29;rounded=0;" parent="1" source="F1wIoHpYnANI5eHH0Oac-135" target="F1wIoHpYnANI5eHH0Oac-30" edge="1">
          <mxGeometry relative="1" as="geometry">
            <Array as="points">
              <mxPoint x="543" y="693" />
            </Array>
          </mxGeometry>
        </mxCell>
      </root>
    </mxGraphModel>
  </diagram>
</mxfile>
